<svg width="46" height="47" viewBox="0 0 46 47" fill="none" xmlns="http://www.w3.org/2000/svg">
  <path d="M24.25 0C23.1667 0 22.25 0.916667 22.25 2V7.75H12.5C11.4167 7.75 10.5 8.66667 10.5 9.75V37.5C10.5 38.5833 11.4167 39.5 12.5 39.5H33.5C34.5833 39.5 35.5 38.5833 35.5 37.5V18.25H40.25C41.3333 18.25 42.25 17.3333 42.25 16.25V4.5C42.25 3.41667 41.3333 2.5 40.25 2.5H24.25V0ZM12.5 9.75H22.25V14.5H12.5V9.75ZM12.5 18.25H22.25V37.5H12.5V18.25ZM35.5 18.25V16.25H26.75V4.5H40.25V16.25H35.5ZM30.25 30.75H18.75C18.0833 30.75 17.5 31.3333 17.5 32C17.5 32.6667 18.0833 33.25 18.75 33.25H30.25C30.9167 33.25 31.5 32.6667 31.5 32C31.5 31.3333 30.9167 30.75 30.25 30.75Z" fill="#FD7D72"/>
</svg>
