<svg width="46" height="47" viewBox="0 0 46 47" fill="none" xmlns="http://www.w3.org/2000/svg">
  <path d="M10.5 4C10.5 2.61929 11.6193 1.5 13 1.5H33C34.3807 1.5 35.5 2.61929 35.5 4V8H10.5V4ZM3 8C1.61929 8 0.5 9.11929 0.5 10.5V36.5C0.5 37.8807 1.61929 39 3 39H43C44.3807 39 45.5 37.8807 45.5 36.5V10.5C45.5 9.11929 44.3807 8 43 8H3ZM4 10H42V36H4V10ZM8.5 29C7.11929 29 6 30.1193 6 31.5C6 32.8807 7.11929 34 8.5 34C9.88071 34 11 32.8807 11 31.5C11 30.1193 9.88071 29 8.5 29ZM34 29C32.6193 29 31.5 30.1193 31.5 31.5C31.5 32.8807 32.6193 34 34 34C35.3807 34 36.5 32.8807 36.5 31.5C36.5 30.1193 35.3807 29 34 29Z" fill="#FD7D72"/>
</svg>
